<svg xmlns="http://www.w3.org/2000/svg" width="40" height="40" viewBox="0 0 40 40" fill="#fff" stroke="#1d4ed8" stroke-width="3" stroke-linecap="round" stroke-linejoin="round" aria-hidden="true"><path d="M18.332 36.217a3.324 3.324 0 0 0 3.332 0l11.668 -6.668a3.324 3.324 0 0 0 1.668 -2.882V13.332a3.324 3.324 0 0 0 -1.668 -2.883L21.665 3.782a3.324 3.324 0 0 0 -3.332 0L6.665 10.45a3.324 3.324 0 0 0 -1.665 2.883v13.332a3.324 3.324 0 0 0 1.668 2.883zM20 36.668V20"/><path d="M5.483 11.668 20 20l14.517 -8.332M12.5 7.117l15 8.583"/></svg>